# xmcd
#
# Track frame offsets: 
#        150
#        11057
#        23578
#        39307
#        57022
#        72397
#        91110
#        111102
#        123648
#        143363
#        154186
#        167859
#        181990
#
# Disc length: 2696 seconds
#
# Revision: 2
# Processed by: cddbd v1.5.2PL0 Copyright (c) Steve Scherf et al.
# Submitted via: ExactAudioCopy v1.0b1
#
DISCID=a00a860d
DTITLE=Ronnie Dawson - More Bad Habits
DYEAR=2000
DGENRE=Rock
TTITLE0=Good At Being Bad
TTITLE1=Mac Attack
TTITLE2=Toe Up From The Flo Up
TTITLE3=Waxahachi Drag Race
TTITLE4=Bobwire Betty
TTITLE5=Chili Pepper Mama
TTITLE6=Bad Habit Or Two
TTITLE7=Rockin' Country Cat
TTITLE8=Rockin' Calaveras
TTITLE9=Rippin' And A Roarin'
TTITLE10=Bayou Betty
TTITLE11=The Frim Fram Sauce
TTITLE12=Party Slab
EXTD=
EXTT0=
EXTT1=
EXTT2=
EXTT3=
EXTT4=
EXTT5=
EXTT6=
EXTT7=
EXTT8=
EXTT9=
EXTT10=
EXTT11=
EXTT12=
PLAYORDER=
